<svg width="22" height="20" viewBox="0 0 22 20" fill="none" xmlns="http://www.w3.org/2000/svg">
<path d="M21.2331 10.877H13.6666C13.336 10.877 13.0664 11.1465 13.0664 11.4771C13.0664 11.6455 13.138 11.7972 13.2496 11.9067L18.5775 17.2346C18.687 17.3525 18.8451 17.4263 19.0178 17.4263C19.2262 17.4263 19.4094 17.321 19.5168 17.161C20.8267 15.6404 21.6691 13.7093 21.8208 11.5845C21.8292 11.5487 21.8334 11.5129 21.8334 11.4771C21.8334 11.1465 21.5659 10.877 21.2331 10.877Z" fill="#002C59"/>
<path d="M11.3793 0C11.0487 0.00202168 10.7812 0.269558 10.7812 0.600171V9.0091C10.7812 9.34186 11.0487 9.61142 11.3793 9.61142H19.7904C20.1211 9.61142 20.3906 9.34186 20.3906 9.0091C20.0936 4.16979 16.2208 0.296985 11.3793 0Z" fill="#002C59"/>
<path d="M16.0029 16.7437L9.7989 10.5397C9.69364 10.4323 9.63049 10.2828 9.63049 10.1206L9.62827 1.35785C9.62827 1.02723 9.36087 0.759766 9.03019 0.759766C3.99074 1.06726 0 5.25377 0 10.3692C0 15.6866 4.3109 19.9995 9.62827 19.9995C12.0543 19.9995 14.2697 19.1024 15.9629 17.6219C16.0935 17.5123 16.1756 17.3482 16.1756 17.1649C16.1756 17.0027 16.1103 16.8532 16.0029 16.7437Z" fill="#002C59"/>
</svg>
