<svg width="20" height="20" viewBox="0 0 20 20" fill="none" xmlns="http://www.w3.org/2000/svg">
<path d="M7.70828 0H1.45828C0.654144 0 0 0.654144 0 1.45828V5.20828C0 6.01257 0.654144 6.66672 1.45828 6.66672H7.70828C8.51257 6.66672 9.16672 6.01257 9.16672 5.20828V1.45828C9.16672 0.654144 8.51257 0 7.70828 0Z" fill="white"/>
<path d="M7.70828 8.33301H1.45828C0.654144 8.33301 0 8.98715 0 9.79144V18.5414C0 19.3456 0.654144 19.9997 1.45828 19.9997H7.70828C8.51257 19.9997 9.16672 19.3456 9.16672 18.5414V9.79144C9.16672 8.98715 8.51257 8.33301 7.70828 8.33301Z" fill="white"/>
<path d="M18.5405 13.333H12.2905C11.4862 13.333 10.832 13.9872 10.832 14.7914V18.5414C10.832 19.3456 11.4862 19.9997 12.2905 19.9997H18.5405C19.3446 19.9997 19.9987 19.3456 19.9987 18.5414V14.7914C19.9987 13.9872 19.3446 13.333 18.5405 13.333Z" fill="white"/>
<path d="M18.5405 0H12.2905C11.4862 0 10.832 0.654144 10.832 1.45828V10.2083C10.832 11.0126 11.4862 11.6667 12.2905 11.6667H18.5405C19.3446 11.6667 19.9987 11.0126 19.9987 10.2083V1.45828C19.9987 0.654144 19.3446 0 18.5405 0Z" fill="white"/>
</svg>
