<svg width="25" height="28" viewBox="0 0 25 28" fill="none" xmlns="http://www.w3.org/2000/svg">
<path d="M1.78571 0C2.77344 0 3.57143 0.782031 3.57143 1.75V2.625L7.42188 1.68437C9.54799 1.16484 11.7913 1.40547 13.7556 2.36797C16.3393 3.63672 19.3806 3.63672 21.9643 2.36797L22.5 2.10547C23.6496 1.53672 25 2.35703 25 3.61484V18.9109C25 19.6383 24.5368 20.2945 23.8393 20.5516L21.9029 21.2625C19.3248 22.2086 16.4565 22.0609 13.9955 20.8578C11.8806 19.8188 9.45312 19.5617 7.1596 20.125L3.57143 21V26.25C3.57143 27.218 2.77344 28 1.78571 28C0.797991 28 0 27.218 0 26.25V1.75C0 0.782031 0.797991 0 1.78571 0ZM3.57143 10.232L7.14286 9.47188V13.0539L3.57143 13.8141V17.3961L6.29464 16.7289C6.57924 16.6578 6.85826 16.5977 7.14286 16.5484V13.0539L9.31362 12.5945C9.77678 12.4961 10.2455 12.4578 10.7143 12.4797V8.97969C11.4732 9.00156 12.2321 9.12188 12.9688 9.32969L14.2857 9.70703V13.3547L11.9587 12.682C11.5513 12.5672 11.1328 12.4961 10.7143 12.4742V16.3789C11.9308 16.4828 13.1306 16.7453 14.2857 17.1664V13.3492L15.5525 13.7156C16.3058 13.9344 17.0759 14.0656 17.8571 14.1203V10.6094C17.4219 10.5656 16.9866 10.4836 16.5625 10.3633L14.2857 9.70703V6.31641C13.5603 6.10859 12.846 5.83516 12.154 5.49609C11.6964 5.27187 11.2109 5.11328 10.7143 5.01484V8.97422C9.98884 8.95234 9.26339 9.01797 8.55469 9.17109L7.14286 9.47188V5.35938L3.57143 6.23438V10.232ZM17.8571 18.3586C18.7946 18.4406 19.7489 18.3203 20.6473 17.9867L21.4286 17.7023V13.7812L20.9877 13.8797C19.9609 14.1148 18.9062 14.1914 17.8571 14.1258V18.3586ZM21.4286 10.1883V6.31641C20.2623 6.65 19.0625 6.81406 17.8571 6.81406V10.6094C18.6328 10.6859 19.4196 10.6367 20.1842 10.4672L21.4286 10.1828V10.1883Z" fill="white"/>
</svg>
