<svg width="18" height="18" viewBox="0 0 18 18" fill="none" xmlns="http://www.w3.org/2000/svg">
<path d="M17.8338 8.59471C17.7498 6.29587 16.7811 4.11839 15.1299 2.51688C13.4786 0.915357 11.2725 0.0136344 8.97226 2.46278e-06H8.92882C7.37974 -0.00114834 5.85712 0.401026 4.51064 1.16695C3.1642 1.93287 2.04036 3.03615 1.24971 4.36823C0.459059 5.70031 0.0288479 7.21531 0.00140092 8.76409C-0.0260454 10.3129 0.350219 11.8421 1.09317 13.2014L0.304272 17.9222C0.302988 17.9318 0.30378 17.9417 0.3066 17.951C0.309414 17.9604 0.314196 17.969 0.320616 17.9764C0.327036 17.9838 0.334949 17.9897 0.343829 17.9938C0.352709 17.9978 0.362357 17.9999 0.372125 18H0.385697L5.05487 16.9614C6.26128 17.5406 7.58242 17.8411 8.92066 17.8408C9.00574 17.8408 9.09076 17.8408 9.17578 17.8408C10.353 17.8072 11.5119 17.5408 12.5855 17.0569C13.6592 16.5731 14.6264 15.8814 15.4314 15.0218C16.2363 14.1622 16.8631 13.1516 17.2754 12.0485C17.6877 10.9454 17.8775 9.77155 17.8338 8.59471ZM9.13144 16.2892C9.06088 16.2892 8.99032 16.2892 8.92066 16.2892C7.73794 16.2907 6.57214 16.0076 5.5217 15.4641L5.28286 15.3392L2.1164 16.0874L2.70083 12.8839L2.56513 12.6541C1.91698 11.549 1.56786 10.2942 1.55217 9.01315C1.53648 7.73215 1.85475 6.46909 2.47564 5.34851C3.09653 4.22789 3.99861 3.28835 5.09305 2.6224C6.18748 1.95645 7.4365 1.58708 8.71714 1.55067C8.7883 1.55067 8.85976 1.55067 8.93152 1.55067C10.865 1.5564 12.7188 2.32144 14.0936 3.68098C15.4684 5.04051 16.2541 6.88573 16.2814 8.81899C16.3086 10.7523 15.5754 12.6189 14.2395 14.0167C12.9036 15.4145 11.0721 16.2316 9.1396 16.2919L9.13144 16.2892Z" fill="#0C4580"/>
<path d="M5.81934 4.61404C5.70912 4.61619 5.60044 4.64044 5.49974 4.68535C5.39904 4.73026 5.30838 4.79492 5.23312 4.8755C5.02051 5.09354 4.42612 5.61826 4.39174 6.7202C4.35737 7.8221 5.12727 8.9123 5.23493 9.06518C5.34259 9.21806 6.70686 11.5984 8.95416 12.5637C10.2751 13.1328 10.8541 13.2304 11.2295 13.2304C11.3842 13.2304 11.5009 13.2142 11.623 13.2069C12.0347 13.1816 12.9638 12.7057 13.1665 12.1882C13.3691 11.6707 13.3827 11.2184 13.3293 11.1279C13.276 11.0374 13.1294 10.9723 12.9086 10.8565C12.6879 10.7407 11.605 10.1617 11.4014 10.0803C11.3259 10.0451 11.2447 10.024 11.1616 10.0179C11.1076 10.0207 11.055 10.0366 11.0085 10.0644C10.962 10.0921 10.9229 10.1308 10.8947 10.177C10.7138 10.4023 10.2986 10.8918 10.1592 11.0329C10.1288 11.068 10.0913 11.0962 10.0492 11.1159C10.0072 11.1355 9.96138 11.1461 9.91494 11.1469C9.82938 11.1432 9.74568 11.1206 9.66978 11.0809C9.0138 10.8023 8.41572 10.4034 7.9065 9.90476C7.4307 9.4358 7.02702 8.89892 6.70866 8.31158C6.58566 8.08358 6.70866 7.96598 6.82086 7.85924C6.93306 7.75244 7.05336 7.60502 7.16916 7.4774C7.2642 7.36844 7.3434 7.24664 7.40442 7.11554C7.43598 7.0547 7.45194 6.98696 7.4508 6.91844C7.44972 6.84986 7.4316 6.78272 7.39806 6.7229C7.34472 6.6089 6.94572 5.48799 6.75846 5.03835C6.60648 4.65385 6.42552 4.64118 6.26718 4.62942C6.13692 4.62038 5.98764 4.61585 5.83836 4.61133H5.81934" fill="#0C4580"/>
</svg>
