<svg width="14" height="14" viewBox="0 0 14 14" fill="none" xmlns="http://www.w3.org/2000/svg">
<path d="M4.50879 0.673243C4.29825 0.164672 3.74319 -0.106019 3.21275 0.0388961L0.806605 0.695117C0.330845 0.826361 0 1.25837 0 1.75054C0 8.51509 5.48491 14 12.2495 14C12.7416 14 13.1736 13.6692 13.3049 13.1934L13.9611 10.7873C14.106 10.2568 13.8353 9.70175 13.3268 9.49121L10.7019 8.39751C10.2562 8.21158 9.73941 8.34009 9.43591 8.71469L8.33127 10.0627C6.40636 9.15217 4.84783 7.59364 3.93733 5.66873L5.28531 4.56682C5.65991 4.26059 5.78842 3.74655 5.60249 3.30086L4.50879 0.675977V0.673243Z" fill="#0C4580"/>
</svg>
