<svg width="23" height="20" viewBox="0 0 23 20" fill="none" xmlns="http://www.w3.org/2000/svg">
<path fill-rule="evenodd" clip-rule="evenodd" d="M4.44444 2.22222C4.44444 0.994922 5.43937 0 6.66667 0H15.5556C16.7829 0 17.7778 0.994922 17.7778 2.22222V3.33333H4.44444V2.22222ZM2.22222 7.22222C2.22222 5.99492 3.21714 5 4.44444 5H17.7778C19.0051 5 20 5.99492 20 7.22222V8.33333H2.22222V7.22222ZM0 12.2222C0 10.9949 0.994922 10 2.22222 10H20C21.2273 10 22.2222 10.9949 22.2222 12.2222V15.5556C22.2222 18.0101 20.2323 20 17.7778 20H4.44444C1.98984 20 0 18.0101 0 15.5556V12.2222ZM8.05556 13.3333C8.05556 12.8731 8.42866 12.5 8.88889 12.5H13.3333C13.7936 12.5 14.1667 12.8731 14.1667 13.3333C14.1667 13.7936 13.7936 14.1667 13.3333 14.1667H8.88889C8.42866 14.1667 8.05556 13.7936 8.05556 13.3333Z" fill="white"/>
</svg>
